<svg id="Layer_1" data-name="Layer 1" xmlns="http://www.w3.org/2000/svg" viewBox="0 0 91.34 75.15">
  <defs>
    <style>
      .cls-1 {
        fill-rule: evenodd;
      }
    </style>
  </defs>
  <title>quote</title>
  <path class="cls-1" d="M12.37,56.49c1.76,4.44,1,6.5-2.05,8.63a109.06,109.06,0,0,0-15,12.26c-5.18,5.24-7,12-5.42,19.34,1,4.66,3.39,5.71,8.08,4.85,3.81-.7,7.91-1.57,11.59-0.87,5.65,1.08,9.22,5.36,10.26,11,1.11,6-.18,11.54-5.46,15.57C1,137.45-19.13,128.94-23,111s3.24-32.36,16.92-43.53C-0.66,63.07,6,60.22,12.37,56.49Z" transform="translate(24.01 -56.49)"/>
  <path class="cls-1" d="M59.83,57.62c1.41,3.62.16,5.57-2.74,7.63A107.91,107.91,0,0,0,42.16,77.58C37,82.86,35.3,89.64,36.95,97c0.94,4.18,3.55,5.65,7.8,4.62,3.19-.78,6.57-1.91,9.69-1.53,6.3,0.77,10.53,4.75,12.29,10.91a15.23,15.23,0,0,1-5.56,16.45c-13.25,9.92-32.85,1.41-37.18-16.16-2.33-9.47-.76-18.5,3.4-27.13C33.54,71.38,46.31,61,59.83,57.62Z" transform="translate(24.01 -56.49)"/>
</svg>
