<?xml version="1.0" encoding="UTF-8"?><!DOCTYPE svg PUBLIC "-//W3C//DTD SVG 1.1//EN" "http://www.w3.org/Graphics/SVG/1.1/DTD/svg11.dtd"><svg xmlns="http://www.w3.org/2000/svg"><symbol id="arrow_down" viewBox="0 0 42.736 27.435"><path fill="#FFF" d="M22.563 26.938a1.68 1.68 0 0 1-2.387 0L.498 7.286a1.712 1.712 0 0 1 0-2.413L4.9.497a1.68 1.68 0 0 1 2.387 0l14.082 14.082L35.45.497a1.682 1.682 0 0 1 2.388 0l4.401 4.376c.663.663.663 1.75 0 2.413L22.563 26.938z"/></symbol><symbol id="arrow_up" viewBox="0 0 42.736 27.435"><path d="M42.239 20.149c.663.662.663 1.75 0 2.413l-4.401 4.376a1.684 1.684 0 0 1-2.388 0L21.369 12.856 7.287 26.938a1.683 1.683 0 0 1-2.387 0L.498 22.562a1.712 1.712 0 0 1 0-2.413L20.175.498a1.68 1.68 0 0 1 2.387 0l19.677 19.651z"/></symbol><symbol id="figure" viewBox="0 0 186.861 110.966"><circle cx="70.704" cy="105.783" r="5.182"/><circle cx="5.183" cy="78.269" r="5.183"/><circle cx="121.8" cy="63.519" r="2.848"/><circle cx="48.859" cy="49.678" r="2.848"/><circle cx="33.16" cy="17.826" r="2.848"/><circle cx="87.597" cy="7.948" r="2.848"/><path fill="none" d="M5.183 78.269l65.521 27.513 51.097-42.263z"/><path fill="none" d="M33.16 17.825L5.183 78.269l65.521 27.513L88.01 7.825zM48.859 49.677l72.942 13.842"/><circle cx="181.678" cy="93.211" r="5.182"/><circle cx="136.611" cy="5.184" r="5.183"/><circle cx="176.274" cy="27.121" r="2.848"/><circle cx="123.17" cy="79.005" r="2.848"/><circle cx="88.066" cy="73.644" r="2.848"/><circle cx="111.13" cy="23.354" r="2.848"/><path fill="none" d="M123.17 79.005l58.508 14.205-5.404-66.09z"/><path fill="none" d="M88.065 73.644l48.546-68.461 45.067 88.027-70.413-70.265zM123.169 79.004l53.105-51.884"/></symbol><symbol id="figure_2" viewBox="0 0 171.5 132.5"><circle cx="4.25" cy="92.25" r="4.25"/><circle cx="48.25" cy="128.25" r="4.25"/><circle cx="72.75" cy="52.75" r="4.75"/><circle cx="8.25" cy="22.25" r="4.25"/><circle cx="117.25" cy="96.25" r="2.75"/><circle cx="126.25" cy="41.25" r="1.911"/><circle cx="167.25" cy="4.25" r="4.25"/><path fill="none" d="M72.75 52.75l44.5 43.5-113-4 44 36 69-32 50-92-41 37-53.5 13.084L8.25 22.25M48.25 131.334L8.5 24.339"/></symbol><symbol id="figure_3" viewBox="0 0 103.03 124.03"><circle cx="5.182" cy="60.182" r="5.182"/><circle cx="50.182" cy="5.182" r="5.182"/><circle cx="31.182" cy="121.182" r="2.848"/><circle cx="65.182" cy="55.182" r="2.848"/><circle cx="100.182" cy="49.182" r="2.848"/><circle cx="94.182" cy="104.182" r="2.848"/><path fill="none" d="M50.183 5.182l-45 55 26 61.001z"/><path fill="none" d="M100.183 49.182l-50-44-45 55 89 44.43zM65.183 55.182l-34 66.001"/></symbol><symbol id="github" viewBox="0 0 26 22"><path d="M25.047 17.422C22.984 21.594 17.313 22 13.25 22 9.125 22 3.109 21.641.969 17.422.172 15.844 0 13.984 0 12.25c0-2.281.625-4.438 2.125-6.188a8.585 8.585 0 0 1-.422-2.656c0-1.172.266-2.343.797-3.406 2.469 0 4.047 1.078 5.922 2.547A20.895 20.895 0 0 1 13.25 2c1.469 0 2.953.156 4.375.5C19.484 1.047 21.063 0 23.5 0a7.629 7.629 0 0 1 .797 3.406c0 .891-.141 1.781-.422 2.625C25.375 7.797 26 9.969 26 12.25c0 1.734-.172 3.578-.953 5.172zM18.5 10.5c-1.031 0-2.016.188-3.047.328-.812.125-1.625.172-2.453.172s-1.641-.047-2.453-.172c-1.016-.14-2.016-.328-3.047-.328-2.547 0-4 2.109-4 4.5 0 4.781 4.375 5.516 8.188 5.516h2.625c3.813 0 8.188-.734 8.188-5.516-.001-2.391-1.454-4.5-4.001-4.5zM8 18c-1.406 0-2-1.859-2-3s.594-3 2-3 2 1.859 2 3-.594 3-2 3zm10 0c-1.406 0-2-1.859-2-3s.594-3 2-3 2 1.859 2 3-.594 3-2 3z"/></symbol><symbol id="header_bottom" viewBox="0 0 1000 85" preserveAspectRatio="none"><path class="header__bottom-bg-left" d="M0 0v86h500.8V75.5z"/><path class="header__bottom-bg-right" d="M1000 0v86H500V75.5z"/></symbol><symbol id="in" viewBox="0 0 24 22.938"><path d="M2.875 5.344h-.031C1.109 5.344 0 4.156 0 2.672 0 1.156 1.156 0 2.906 0c1.766 0 2.859 1.156 2.875 2.672.016 1.484-1.109 2.672-2.906 2.672zm2.578 17.594H.297V7.453h5.156v15.485zm18.547 0h-5.141v-8.281c0-2.078-.75-3.5-2.609-3.5-1.422 0-2.266.953-2.641 1.875-.125.344-.172.797-.172 1.266v8.641h-5.14c.063-14.031 0-15.484 0-15.484h5.141v2.25h-.031c.672-1.063 1.891-2.609 4.672-2.609 3.391 0 5.922 2.219 5.922 6.969v8.873z"/></symbol><symbol id="link_ico" viewBox="0 0 19.125 19.125"><path d="M18.129 16.441l-1.723 1.711a3.35 3.35 0 0 1-2.379.973 3.335 3.335 0 0 1-2.391-.996l-2.414-2.426a3.353 3.353 0 0 1-.972-2.379 3.43 3.43 0 0 1 1.031-2.449L8.25 9.844a3.407 3.407 0 0 1-2.438 1.031 3.392 3.392 0 0 1-2.391-.984L.984 7.453A3.34 3.34 0 0 1 0 5.063c0-.891.363-1.758.996-2.379L2.719.973A3.35 3.35 0 0 1 5.098 0C6 0 6.855.352 7.488.996l2.414 2.426a3.35 3.35 0 0 1 .973 2.379A3.43 3.43 0 0 1 9.844 8.25l1.031 1.031a3.407 3.407 0 0 1 2.438-1.031c.891 0 1.758.352 2.391.984l2.438 2.438c.645.645.984 1.488.984 2.391a3.356 3.356 0 0 1-.997 2.378zM8.309 5.004L5.895 2.578c-.211-.211-.504-.328-.797-.328s-.586.117-.797.316L2.578 4.277a1.116 1.116 0 0 0 0 1.583l2.438 2.438c.211.21.504.315.797.315.34 0 .609-.117.844-.363-.387-.387-.844-.715-.844-1.312 0-.621.504-1.125 1.125-1.125.598 0 .926.457 1.313.844.246-.234.387-.504.387-.855a1.142 1.142 0 0 0-.329-.798zm8.238 8.262l-2.438-2.438a1.136 1.136 0 0 0-1.641.047c.387.387.844.715.844 1.313 0 .621-.504 1.125-1.125 1.125-.598 0-.926-.457-1.313-.844-.246.234-.387.504-.387.855 0 .293.117.586.328.797l2.414 2.426c.211.211.504.316.797.316s.586-.105.797-.305l1.723-1.711c.211-.211.328-.492.328-.785a1.11 1.11 0 0 0-.327-.796z"/></symbol><symbol id="login" viewBox="0 0 14.137 15.422"><path d="M11.456 15.422H2.681C1.084 15.422 0 14.448 0 12.821c0-2.269.532-5.753 3.474-5.753.312 0 1.627 1.396 3.595 1.396s3.283-1.396 3.595-1.396c2.941 0 3.474 3.484 3.474 5.753-.001 1.627-1.085 2.601-2.682 2.601zM7.068 7.711A3.856 3.856 0 1 1 7.069 0a3.856 3.856 0 0 1-.001 7.711z"/></symbol><symbol id="mail" viewBox="0 0 22.012 17.295"><path d="M19.911 5.331c-1.916 1.327-3.845 2.653-5.748 3.992-.799.553-2.15 1.683-3.145 1.683h-.025c-.995 0-2.346-1.13-3.145-1.683-1.903-1.339-3.831-2.665-5.735-3.992C1.241 4.741 0 3.354 0 2.235 0 1.032.651 0 1.965 0h18.082c1.068 0 1.965.884 1.965 1.965 0 1.376-1.02 2.617-2.101 3.366zm2.101 9.999c0 1.08-.885 1.965-1.965 1.965H1.965A1.971 1.971 0 0 1 0 15.33V5.577c.369.405.786.762 1.241 1.069 2.039 1.388 4.103 2.776 6.104 4.237 1.032.762 2.31 1.695 3.648 1.695h.025c1.339 0 2.616-.934 3.647-1.695 2.003-1.449 4.066-2.85 6.117-4.237a7.28 7.28 0 0 0 1.229-1.069v9.753z"/></symbol><symbol id="marker" viewBox="0 0 22.5 28.76"><path d="M11.34 0h-.18A11.34 11.34 0 0 0 0 11.34c0 8.36 9.81 16.29 11.25 17.42 1.44-1.13 11.25-9.06 11.25-17.42A11.34 11.34 0 0 0 11.34 0zm0 16.22a5.85 5.85 0 1 1 5.85-5.85 5.85 5.85 0 0 1-5.85 5.81z"/></symbol><symbol id="password" viewBox="0 0 16.897 15.984"><path fill="#C4CBCD" d="M15.743 12.078c-.261 0-1.074-.943-1.285-1.154l-.964.964 2.209 2.209a.973.973 0 0 1 .281.683c0 .563-.643 1.205-1.205 1.205a.978.978 0 0 1-.683-.281L7.359 8.966c-1.054.783-2.339 1.315-3.664 1.315C1.506 10.281 0 8.765 0 6.586 0 3.293 3.293 0 6.586 0c2.18 0 3.695 1.506 3.695 3.695 0 1.325-.532 2.61-1.315 3.665l3.564 3.564.964-.964c-.211-.211-1.154-1.024-1.154-1.285 0-.231.924-1.155 1.154-1.155.08 0 .171.041.23.101.372.372 3.173 3.012 3.173 3.303 0 .23-.923 1.154-1.154 1.154zM6.426 1.928a1.928 1.928 0 0 0-1.928 1.928c0 .291.07.572.19.833a1.973 1.973 0 0 0-.833-.191 1.928 1.928 0 1 0 1.928 1.928c0-.291-.07-.572-.19-.833.261.121.542.191.833.191a1.928 1.928 0 0 0 0-3.856z"/></symbol><symbol id="phone" viewBox="0 0 18.864 18.863"><path d="M18.448 16.76c-.281.656-1.031 1.086-1.634 1.42-.791.43-1.595.684-2.492.684-1.246 0-2.371-.51-3.51-.924a12.587 12.587 0 0 1-2.345-1.112c-2.278-1.407-5.024-4.153-6.431-6.431A12.617 12.617 0 0 1 .924 8.052C.509 6.913 0 5.788 0 4.542 0 3.644.254 2.84.683 2.05c.335-.603.764-1.353 1.42-1.634C2.545.214 3.483 0 3.965 0c.095 0 .188 0 .282.04.281.094.576.75.71 1.019.429.764.844 1.541 1.286 2.291.214.349.616.777.616 1.192 0 .817-2.425 2.01-2.425 2.733 0 .361.335.831.522 1.152 1.353 2.438 3.041 4.126 5.479 5.479.322.188.791.522 1.152.522.724 0 1.916-2.425 2.733-2.425.415 0 .844.402 1.192.616.75.442 1.527.857 2.291 1.286.268.134.924.429 1.018.71.041.094.041.188.041.281.002.484-.213 1.422-.414 1.864z"/></symbol><symbol id="quote" viewBox="0 0 91.34 75.15"><path d="M36.38 0c1.76 4.44 1 6.5-2.05 8.63a109.06 109.06 0 0 0-15 12.26c-5.18 5.24-7 12-5.42 19.34 1 4.66 3.39 5.71 8.08 4.85 3.81-.7 7.91-1.57 11.59-.87 5.65 1.08 9.22 5.36 10.26 11 1.11 6-.18 11.54-5.46 15.57-13.37 10.18-33.5 1.67-37.37-16.27s3.24-32.36 16.92-43.53C23.35 6.58 30.01 3.73 36.38 0zM83.84 1.13c1.41 3.62.16 5.57-2.74 7.63a107.91 107.91 0 0 0-14.93 12.33c-5.16 5.28-6.86 12.06-5.21 19.42.94 4.18 3.55 5.65 7.8 4.62 3.19-.78 6.57-1.91 9.69-1.53 6.3.77 10.53 4.75 12.29 10.91a15.23 15.23 0 0 1-5.56 16.45C71.93 80.88 52.33 72.37 48 54.8c-2.33-9.47-.76-18.5 3.4-27.13C57.55 14.89 70.32 4.51 83.84 1.13z"/></symbol><symbol id="skype" viewBox="0 0 24 24"><path d="M18 24a5.976 5.976 0 0 1-3.656-1.25c-.75.156-1.547.25-2.344.25-6.078 0-11-4.922-11-11 0-.797.094-1.594.25-2.344A5.976 5.976 0 0 1 0 6c0-3.313 2.688-6 6-6 1.375 0 2.641.469 3.656 1.25C10.406 1.094 11.203 1 12 1c6.078 0 11 4.922 11 11 0 .797-.094 1.594-.25 2.344A5.976 5.976 0 0 1 24 18a6 6 0 0 1-6 6zm-4.531-13.547l-1.625-.375c-1.188-.281-2.078-.484-2.078-1.391 0-.828.875-1.203 2.25-1.203 2.453 0 2.5 1.797 4.016 1.797 1.016 0 1.625-.797 1.625-1.703 0-1.797-2.984-2.969-5.938-2.969-2.703 0-5.844 1.172-5.844 4.344 0 2.625 1.75 3.563 4.031 4.109l2.281.563c1.391.344 2.25.5 2.25 1.5 0 .797-.891 1.406-2.266 1.406-2.891 0-3.047-2.406-4.719-2.406-1.094 0-1.578.781-1.578 1.641 0 1.922 2.938 3.484 6.453 3.484 2.938 0 6-1.469 6-4.641.001-2.718-2.639-3.656-4.858-4.156z"/></symbol><symbol id="vk" viewBox="0 0 30.011 17.123"><path d="M27.625 5.832c-3.031 4.031-3.359 3.656-.859 5.984 2.406 2.234 2.906 3.313 2.984 3.453 0 0 1 1.75-1.109 1.766l-4 .063c-.859.172-2-.609-2-.609-1.5-1.031-2.906-3.703-4-3.359 0 0-1.125.359-1.094 2.766.016.516-.234.797-.234.797s-.281.297-.828.344h-1.797c-3.953.25-7.438-3.391-7.438-3.391S3.437 9.707.093 1.848c-.219-.516.016-.766.016-.766S.343.785 1 .785L5.281.754c.406.063.688.281.688.281s.25.172.375.5c.703 1.75 1.609 3.344 1.609 3.344 1.563 3.219 2.625 3.766 3.234 3.438 0 0 .797-.484.625-4.375-.063-1.406-.453-2.047-.453-2.047-.359-.485-1.031-.625-1.328-.672-.234-.031.156-.594.672-.844.766-.375 2.125-.391 3.734-.375 1.266.016 1.625.094 2.109.203 1.484.359.984 1.734.984 5.047 0 1.063-.203 2.547.563 3.031.328.219 1.141.031 3.141-3.375 0 0 .938-1.625 1.672-3.516.125-.344.391-.484.391-.484s.25-.141.594-.094l4.5-.031c1.359-.172 1.578.453 1.578.453.234.641-.501 2.141-2.344 4.594z"/></symbol></svg>